<svg width="172" height="98" viewBox="0 0 172 98" fill="none" xmlns="http://www.w3.org/2000/svg">
<circle cx="86" cy="38" r="38" fill="#1E1E1E"/>
<path d="M79.3487 57.8806H92.6506V54.9373H79.3487V57.8806ZM96.0084 49.2975L85.9996 46.3323L75.9912 49.2975V43.9132H73.0476V53.24L85.9996 49.4025L98.9517 53.24V43.9132H96.0084V49.2975ZM85.9996 9C80.2673 9.00008 74.6637 10.7 69.8974 13.8848C65.1312 17.0695 61.4164 21.5962 59.2227 26.8922C57.0291 32.1882 56.4552 38.0158 57.5736 43.638C58.6919 49.2602 61.4523 54.4245 65.5057 58.4779C69.5591 62.5312 74.7235 65.2916 80.3457 66.4099C85.9679 67.5283 91.7955 66.9543 97.0915 64.7606C102.388 62.5669 106.914 58.8521 110.099 54.0858C113.284 49.3195 114.983 43.7159 114.983 37.9836C114.975 30.2993 111.918 22.9322 106.485 17.4987C101.051 12.0651 93.6839 9.00867 85.9996 9ZM85.9996 64.0235C80.8495 64.0234 75.815 62.4962 71.5328 59.6348C67.2506 56.7735 63.9131 52.7066 61.9423 47.9484C59.9714 43.1903 59.4558 37.9546 60.4606 32.9034C61.4654 27.8522 63.9455 23.2123 67.5872 19.5706C71.229 15.9289 75.8688 13.4489 80.92 12.4442C85.9712 11.4395 91.2069 11.9551 95.9651 13.926C100.723 15.8969 104.79 19.2345 107.651 23.5167C110.513 27.7989 112.04 32.8334 112.04 37.9836C112.032 44.8875 109.286 51.5063 104.404 56.3881C99.5224 61.2699 92.9035 64.0158 85.9996 64.0235ZM75.9912 26.6039L84.0296 34.9708C82.3201 37.0263 81.2768 38.7345 81.2768 40.6621C81.2768 41.9147 81.7744 43.1159 82.6601 44.0016C83.5458 44.8873 84.747 45.3848 85.9995 45.3848C87.2521 45.3848 88.4533 44.8873 89.339 44.0016C90.2247 43.1159 90.7223 41.9147 90.7223 40.6621C90.7223 38.7351 89.679 37.0269 87.97 34.9708L96.0082 26.6039V40.3288H98.9512V19.2907L86.0486 32.7217L86.0002 32.6653L85.9516 32.7223L73.0476 19.2907V40.3288H75.9911L75.9912 26.6039ZM85.9996 37.2115C87.2692 38.7903 87.7789 39.7949 87.7789 40.6621C87.7789 41.134 87.5914 41.5865 87.2578 41.9202C86.9241 42.2539 86.4715 42.4413 85.9996 42.4413C85.5278 42.4413 85.0752 42.2539 84.7415 41.9202C84.4078 41.5865 84.2204 41.134 84.2204 40.6621C84.2204 39.7946 84.73 38.7903 85.9996 37.2115Z" fill="#F7A626"/>
<path d="M10.5414 91.248C10.3878 91.4426 10.2848 91.6721 10.2415 91.9161H10.2187C10.1749 91.6763 10.0805 91.4486 9.94186 91.248L2.28357 78.6238L0 96.5235H3.15996L4.03663 87.8385C4.09431 87.5186 4.09431 87.1909 4.03663 86.8709C4.17975 87.1991 4.34953 87.515 4.54429 87.8154L10.2415 97.1912L15.9393 87.8154C16.1339 87.5149 16.3036 87.199 16.4467 86.8709C16.3887 87.1909 16.3887 87.5186 16.4467 87.8385L17.3234 96.5235H20.4833L18.1997 78.6238L10.5414 91.248ZM28.222 88.5986H33.9885V85.9264H28.222V81.7799H35.3726V79.1074H25.2695V96.5004H36.1109V93.8282H28.222V88.5986ZM48.2954 87.0551C49.0569 86.7653 49.712 86.2509 50.1735 85.5801C50.635 84.9094 50.8811 84.1142 50.8789 83.3004C50.8789 80.2132 47.9495 79.0846 44.42 79.0846H40.2913V96.5235H45.2967C50.0023 96.5235 52.309 94.4501 52.309 91.5935C52.309 88.7138 49.9791 87.4697 48.2954 87.0551ZM43.2438 81.7568H44.9737C46.5886 81.7568 47.7649 82.4477 47.7649 83.922C47.7649 85.3966 46.5655 86.0647 44.6278 86.0647H43.2437L43.2438 81.7568ZM45.8273 93.851H43.2438V88.5986H45.7351C47.8802 88.5986 49.1718 89.6814 49.1718 91.2939C49.1718 92.7683 48.1109 93.851 45.8273 93.851ZM59.0777 79.0846H56.1252V96.5003H66.3901V93.8282H59.0777V79.0846ZM77.4734 78.693C76.2421 78.6397 75.0127 78.8359 73.8594 79.2698C72.7061 79.7036 71.6526 80.3661 70.7625 81.2174C69.8723 82.0687 69.164 83.0911 68.68 84.2231C68.1961 85.3551 67.9466 86.5732 67.9466 87.804C67.9466 89.0349 68.1961 90.253 68.68 91.385C69.164 92.5169 69.8723 93.5394 70.7625 94.3907C71.6526 95.2419 72.7061 95.9045 73.8594 96.3383C75.0127 96.7722 76.2421 96.9683 77.4734 96.9151C79.7038 96.9318 81.8681 96.1588 83.5821 94.7332C85.2961 93.3076 86.4489 91.3217 86.8361 89.1279H92.0273V86.4557H86.824C86.4721 84.2498 85.3299 82.2466 83.6099 80.8187C81.89 79.3908 79.7093 78.6355 77.4734 78.693ZM77.3119 94.2657C75.6308 94.1837 74.0458 93.4583 72.8861 92.2401C71.7264 91.0218 71.081 89.4043 71.0839 87.7234C71.0784 86.1493 71.6598 84.6296 72.7147 83.4602C73.7696 82.2907 75.2227 81.5553 76.7908 81.3971C78.3589 81.2389 79.9298 81.6692 81.1976 82.6043C82.4655 83.5394 83.3394 84.9123 83.6492 86.4557H78.6497V89.1279H83.6697C83.3788 90.5916 82.5834 91.9072 81.4218 92.8459C80.2602 93.7846 78.806 94.287 77.3119 94.2657ZM111.459 89.7506C111.372 90.0186 111.325 90.298 111.321 90.5797C111.312 90.2965 111.257 90.0165 111.159 89.7506L106.131 78.3701L101.102 89.7506C100.992 90.0371 100.937 90.342 100.941 90.649C100.94 90.3443 100.893 90.0415 100.802 89.7506L96.8348 79.0846H93.5595L100.549 97.3298L106.085 85.4425L111.713 97.3756L118.564 79.0846H115.334L111.459 89.7506ZM129.154 78.693C127.367 78.7574 125.639 79.3445 124.183 80.3813C122.727 81.4181 121.608 82.8591 120.965 84.5254C120.322 86.1917 120.183 88.0098 120.566 89.7542C120.948 91.4986 121.835 93.0924 123.117 94.3378C124.398 95.5832 126.017 96.4254 127.774 96.7597C129.53 97.0941 131.346 96.906 132.997 96.2187C134.647 95.5314 136.059 94.3752 137.057 92.8936C138.055 91.4121 138.596 89.6704 138.612 87.8847C138.613 86.6558 138.367 85.4392 137.889 84.3069C137.411 83.1747 136.71 82.1497 135.828 81.2926C134.946 80.4356 133.901 79.7639 132.755 79.3174C131.608 78.8709 130.384 78.6586 129.154 78.693ZM128.993 94.2657C127.312 94.1837 125.727 93.4583 124.567 92.2401C123.407 91.0218 122.762 89.4043 122.765 87.7234C122.803 86.4714 123.212 85.2588 123.939 84.2382C124.666 83.2176 125.679 82.4346 126.851 81.9879C128.023 81.5411 129.301 81.4506 130.524 81.7276C131.747 82.0046 132.861 82.6367 133.725 83.5445C134.589 84.4523 135.165 85.5952 135.38 86.8292C135.596 88.0632 135.441 89.3332 134.935 90.4794C134.429 91.6255 133.595 92.5966 132.537 93.2703C131.48 93.9441 130.247 94.2904 128.993 94.2657ZM145.022 83.2311C145.022 81.8948 146.337 81.3188 147.606 81.3188C148.225 81.3445 148.833 81.4921 149.395 81.753C149.957 82.0139 150.462 82.3831 150.881 82.8393L152.311 80.6507C151.053 79.4046 149.355 78.7016 147.582 78.693C144.745 78.693 141.931 80.3284 141.931 83.3691C141.931 86.0877 144.146 87.2856 146.383 88.4373C148.136 89.3359 149.751 89.9117 149.751 91.9161C149.751 93.3443 148.69 94.2426 146.844 94.2426C145.163 94.1989 143.562 93.5149 142.369 92.3308L140.801 94.4501C142.374 95.9647 144.453 96.8429 146.637 96.9151C150.604 96.9151 152.888 94.496 152.888 91.8699C152.888 85.7192 145.022 86.5252 145.022 83.2311ZM162.012 87.5841L170.408 79.0604H166.579L159.982 86.1787V79.0604H157.03V96.4993H159.982V89.45L167.663 96.4993H172L162.012 87.5841Z" fill="white"/>
</svg>
