<svg width="115" height="17" viewBox="0 0 115 17" fill="none" xmlns="http://www.w3.org/2000/svg">
<path fill-rule="evenodd" clip-rule="evenodd" d="M44.5621 13.5898H46.1351C46.2157 13.4293 46.2906 13.1484 46.3483 12.9765L47.8233 8.48851C47.9904 8.61461 48.6242 10.764 48.7048 10.999L49.3386 12.9306C49.3962 13.1026 49.5288 13.4293 49.5403 13.5898H51.1536C51.1651 13.4178 52.0812 10.8959 52.1792 10.6494C52.5191 9.76669 52.8648 8.6318 53.2163 7.72618L53.9135 5.74871H52.087L50.7618 9.63486C50.6926 9.85267 50.6177 10.0705 50.5486 10.2768C50.4795 10.4946 50.3815 10.7354 50.3297 10.9532C50.2375 10.8844 50.2259 10.7755 50.1914 10.6609L48.6126 5.74871H47.1031L45.4206 10.9532C45.3111 10.8271 45.2305 10.5118 45.1729 10.3399L44.5045 8.37387C44.3547 7.92106 44.2106 7.49118 44.0666 7.06129C43.9917 6.84348 43.9283 6.63141 43.8476 6.42506C43.79 6.2875 43.6402 5.89774 43.6287 5.74871H41.8022L42.8278 8.68339C42.9488 9.02156 43.064 9.30815 43.1793 9.65206L44.5621 13.5898ZM82.8262 13.5497H84.4337V3.24966C84.4337 3.16941 84.4107 3.14648 84.33 3.14648H82.8262V13.5497ZM104.75 6.74604V5.74871H103.136V13.5898C105.015 13.5898 104.79 13.7102 104.784 13.1943V9.59474C104.779 8.91839 104.974 8.40253 105.28 8.02423C105.966 7.16446 106.622 7.2791 107.544 7.2791V5.60542C106.738 5.41627 105.816 5.81176 105.222 6.32762L104.75 6.74604ZM37.5039 3.24966V10.4488C37.5039 11.0162 37.5327 11.6811 37.648 12.1282C38.034 13.6299 39.6819 14.0025 40.8746 13.6299C41.0071 13.5898 41.0993 13.5267 41.2318 13.5153V11.9505C40.8746 12.0307 40.9956 12.1626 40.1889 12.1626C39.4168 12.1626 39.1863 11.5378 39.1863 10.8443V7.56569C39.1863 7.43959 39.2152 7.42813 39.2209 7.31349H40.9783V5.74871H39.1863V3.24966C39.1863 3.16941 39.1633 3.14648 39.0826 3.14648H37.6134H37.6076C37.527 3.14648 37.5039 3.16941 37.5039 3.24966ZM69.4588 13.7331C70.6976 13.7331 71.8096 13.2573 72.6047 12.4033C72.7085 12.2944 72.8295 12.1626 72.864 12.0193C72.6969 11.9734 72.5414 11.7098 72.3109 11.5378C72.0977 11.3716 71.9479 11.1882 71.752 11.022C71.608 11.1194 71.4985 11.257 71.3717 11.3888C71.0087 11.7442 70.3461 12.1282 69.7815 12.1282C68.9633 12.1282 68.341 12.0709 67.7303 11.3888C66.238 9.70938 67.471 6.5397 70.2194 7.23325C70.6745 7.35361 71.4063 7.81216 71.6483 8.17326C71.7866 8.07582 71.8211 8.05289 71.9421 7.93252C72.0343 7.84082 72.1208 7.74337 72.2129 7.66886C72.4549 7.47398 72.6451 7.21032 72.7949 7.1702C72.7142 6.83775 71.9421 6.2875 71.5964 6.08116C70.2424 5.28444 68.318 5.41627 67.0446 6.37348L66.5145 6.84348C66.1919 7.20459 65.9268 7.61728 65.7367 8.07009C65.1029 9.61194 65.4428 11.3544 66.624 12.5294C66.8141 12.7243 66.9236 12.8332 67.1599 12.988C67.834 13.4408 68.5773 13.7331 69.4588 13.7331ZM108.581 7.88667C108.581 9.66925 110.35 10.0418 111.693 10.4889C111.917 10.5634 112.136 10.6609 112.361 10.7583C113.174 11.1137 112.793 12.2715 111.197 12.2715C110.465 12.2715 109.572 11.3773 109.302 11.3085L108.288 12.2944C108.576 12.7186 109.106 13.0854 109.549 13.3376C109.642 13.3892 109.849 13.4752 109.947 13.5095C111.122 13.9566 112.465 13.8248 113.467 13.137C113.917 12.8332 114.424 12.1454 114.424 11.4117C114.424 10.701 114.343 10.3571 113.842 9.85267C112.983 8.9929 111.664 8.95278 110.638 8.40826C110.54 8.35668 110.425 8.29363 110.368 8.21338C110.051 7.81216 110.35 7.47971 110.679 7.2619C111.307 6.85495 112.361 7.11861 112.989 7.56569C113.081 7.63447 113.047 7.6402 113.168 7.66886L114.251 6.60848C113.853 6.33336 113.773 6.14994 113.104 5.88628C111.917 5.41054 110.477 5.422 109.434 6.20152C108.91 6.58555 108.581 7.19886 108.581 7.88667ZM94.6436 6.06969C94.6436 7.14727 94.5514 10.5863 94.8049 11.469C95.0642 12.3747 95.554 13.1141 96.4413 13.4752C97.8587 14.0483 99.8638 13.9165 100.838 12.6899C101.512 11.8531 101.598 10.8959 101.598 9.77243V6.06969C101.598 5.88628 101.564 5.9092 101.564 5.74871H99.9156V10.3112C99.9156 11.1824 99.5699 11.6983 98.8843 12.0307C97.9451 12.4893 96.3318 12.025 96.3318 10.3112V5.74871H94.6839C94.6782 5.9092 94.6436 5.88628 94.6436 6.06969ZM57.7797 7.1702C58.5921 7.1702 59.0933 7.24471 59.7099 7.85801C60.3609 8.5057 60.3955 9.05022 60.3955 9.88133C60.3955 11.0965 59.3181 12.1626 58.1023 12.1626C57.2438 12.1626 56.7252 11.9734 56.1952 11.4232C55.9071 11.1251 55.6824 10.6379 55.6075 10.231C55.5729 10.0418 55.5671 9.88706 55.5383 9.68645C55.498 9.42852 55.6305 8.88973 55.7054 8.70631C56.0511 7.84082 56.8635 7.1702 57.7797 7.1702ZM53.8789 9.62913C53.8789 11.7728 55.4692 13.5267 57.4973 13.7274C58.0159 13.7732 58.3616 13.7617 58.8859 13.6528C60.8046 13.2459 62.078 11.5493 62.078 9.59474C62.078 6.10982 57.6932 4.17821 55.1062 6.75178C54.7317 7.12434 54.5012 7.43959 54.2592 7.94399C54.0518 8.36814 53.8789 9.02156 53.8789 9.62913ZM75.1918 9.66925C75.1918 9.04449 75.4165 8.29363 75.8429 7.85801C76.5228 7.1702 77.7788 6.90653 78.695 7.36508C79.2423 7.6402 79.6341 8.00131 79.8646 8.58021C80.4754 10.1049 79.7148 12.111 77.6233 12.1397C76.9549 12.1454 76.3326 11.8989 75.8832 11.4404C75.4453 10.999 75.1918 10.3055 75.1918 9.66925ZM73.5439 9.45145C73.5439 10.5519 73.7168 11.1882 74.3045 12.0479C74.4428 12.2543 74.5983 12.4033 74.7712 12.581C76.1022 13.9165 78.3377 14.0999 79.9395 13.0395C80.7634 12.495 81.38 11.6353 81.6162 10.6723C81.8294 9.78962 81.766 8.92985 81.4376 8.08728C81.3396 7.83508 81.2359 7.62874 81.1034 7.42239C80.6828 6.7747 80.1585 6.32762 79.467 5.98372C78.1245 5.3131 76.4882 5.45066 75.2494 6.3047C74.9613 6.49958 75.0247 6.49385 74.8576 6.62568C74.6444 6.80336 74.7136 6.76897 74.5004 6.98678C74.4197 7.06702 74.3563 7.16446 74.2814 7.26764C73.8723 7.85228 73.5439 8.67192 73.5439 9.45145ZM89.7 12.1626C89.1929 12.1626 88.9049 12.174 88.4266 11.939C87.6603 11.555 87.0899 10.7526 87.0899 9.91572C87.0899 9.10754 87.1302 8.49424 87.7583 7.87521C89.239 6.4136 91.9586 7.27337 91.9586 9.66925C91.9586 10.6551 91.44 11.5092 90.6564 11.8989C90.4029 12.0307 90.0687 12.1626 89.7 12.1626ZM85.4017 9.49157C85.4017 10.2367 85.4824 10.7984 85.7877 11.4289C85.9548 11.7786 86.1277 12.0479 86.3812 12.3345C87.7813 13.9337 90.0687 14.2146 91.78 13.0911C92.8114 12.4148 93.6065 11.1309 93.6065 9.91572C93.6065 9.119 93.5719 8.59741 93.2032 7.86374C92.1776 5.84042 89.9823 5.06663 87.8332 5.92067C86.4734 6.45946 85.4017 7.99557 85.4017 9.49157Z" fill="white"/>
<path fill-rule="evenodd" clip-rule="evenodd" d="M24.3283 0C29.0357 0 32.85 3.79444 32.85 8.47731C32.85 13.1544 29.0357 16.9489 24.3283 16.9489C21.2055 16.9489 18.4686 15.2695 16.9878 12.7704C16.4865 11.8935 15.9853 11.0165 15.484 10.1338L15.1037 9.48037L14.5391 8.50597L15.1037 9.48037V9.4861L15.1095 9.49183L15.1152 9.49757V9.5033H15.121V9.50903L15.1268 9.51476L15.1325 9.52049L15.1383 9.52622C15.1441 9.53196 15.1441 9.53196 15.1498 9.53769H15.1556V9.54342H15.1613V9.54915H15.1671H15.1729V9.55488H15.1786V9.56061H15.1901L15.1959 9.56635H15.2017V9.57208H15.2074H15.2132H15.219V9.57781H15.2247H15.2305H15.2362V9.58354H15.242H15.2478C15.2535 9.58354 15.2535 9.58354 15.2593 9.58354H15.265H15.2708L15.2766 9.58927H15.2823C15.2881 9.58927 15.2939 9.58927 15.2996 9.58927H15.3054H15.3111H15.3169C15.3169 9.58354 15.3227 9.58354 15.3227 9.58354H15.3284H15.3342H15.34C15.3457 9.58354 15.3572 9.57781 15.363 9.57781H15.3688L15.3745 9.57208H15.3803L15.386 9.56635H15.3918L15.3976 9.56061H15.4033L15.4091 9.55488C15.5128 9.49757 15.5474 9.36573 15.4898 9.26256L15.1441 8.66646L15.0922 8.58048L14.9597 8.34548L14.9539 8.33974V8.33401L14.9481 8.32828L14.9424 8.32255V8.31682V8.31109L14.9366 8.30535V8.29962V8.29389V8.28816L14.9309 8.28243V8.2767V8.27096V8.26523V8.2595V8.25377V8.24804L14.9251 8.2423V8.23657V8.23084L14.9309 8.22511V8.21938V8.21365V8.20791V8.20218V8.19645V8.19072L14.9366 8.18499V8.17925V8.17352V8.16779H14.9424V8.16206V8.15633L14.9481 8.1506V8.14486V8.13913H14.9539V8.1334L14.9597 8.12767V8.12194L14.9654 8.11621L14.9712 8.11047V8.10474L14.977 8.09901L14.9827 8.09328L14.9885 8.08755L14.9942 8.08181V8.07608H15L15.0058 8.07035L15.0115 8.06462L15.0173 8.05889H15.0231L15.0288 8.05316H15.0346V8.04742H15.0403L15.0461 8.04169H15.0519L15.0576 8.03596H15.0634H15.0691L15.0749 8.03023H15.0807L15.0864 8.0245H15.0922H15.098H15.1037H15.1095H15.1152L15.121 8.01876H15.1268H15.1325H15.1383H15.1441H15.1498H15.1556H15.1613H15.1671H15.1729L15.1786 8.0245H15.1844H15.1901H15.1959H15.2017L15.2074 8.03023H15.2132H15.219L15.2247 8.03596H15.2305L15.2362 8.04169H15.242H15.2478L15.2535 8.04742H15.2593V8.05316H15.265L15.2708 8.05889H15.2766V8.06462H15.2823L15.2881 8.07035V8.07608H15.2939L15.2996 8.08181L15.3054 8.08755L15.3111 8.09328V8.09901H15.3169V8.10474H15.3227V8.11047H15.3284V8.11621V8.12194H15.3342V8.12767L15.4725 8.36267L15.5243 8.44865L15.6684 8.70085L15.6741 8.70658V8.71231L15.6799 8.71804V8.72377H15.6857L15.6914 8.72951V8.73524H15.6972V8.74097L15.7029 8.7467H15.7087V8.75243L15.7145 8.75817H15.7202L15.726 8.7639L15.7318 8.76963H15.7375L15.7433 8.77536L15.749 8.78109H15.7548L15.7606 8.78682H15.7663H15.7721V8.79256H15.7778H15.7836L15.7894 8.79829H15.7951H15.8009H15.8067L15.8124 8.80402H15.8182H15.8239H15.8297H15.8355H15.8412H15.847H15.8528H15.8585H15.8643H15.87H15.8758H15.8816H15.8873H15.8931H15.8988H15.9046L15.9104 8.79829H15.9161H15.9219H15.9277V8.79256H15.9334H15.9392L15.9449 8.78682H15.9507L15.9565 8.78109H15.9622L15.968 8.77536C16.0717 8.71804 16.1063 8.58621 16.0429 8.48304L15.9737 8.35694L15.8988 8.23084L15.7894 8.04169L15.6799 7.84681L15.628 7.76657L15.363 7.30802L15.1786 6.98704L15.1729 6.98131V6.97558L15.1671 6.96985V6.96412V6.95838L15.1613 6.95265V6.94692V6.94119L15.1556 6.93546V6.92973V6.92399V6.91826V6.91253L15.1498 6.9068V6.90107V6.89534V6.8896V6.88387V6.87814V6.87241V6.86668V6.86094V6.85521L15.1556 6.84948V6.84375V6.83802V6.83229V6.82655L15.1613 6.82082V6.81509V6.80936L15.1671 6.80363V6.79789V6.79216H15.1729V6.78643V6.7807L15.1786 6.77497V6.76924H15.1844V6.7635L15.1901 6.75777V6.75204H15.1959V6.74631L15.2017 6.74058L15.2074 6.73485L15.2132 6.72911L15.219 6.72338L15.2247 6.71765L15.2305 6.71192L15.2362 6.70619H15.242L15.2478 6.70045L15.2535 6.69472H15.2593C15.363 6.63167 15.5013 6.66606 15.5589 6.76924L15.7433 7.09022L16.0083 7.54876L16.0602 7.629V7.64047L16.1696 7.82388V7.82962L16.2503 7.95572L16.2791 8.01303L16.354 8.14486L16.7804 8.87853C16.8438 8.9817 16.9763 9.0161 17.08 8.95878C17.1837 8.89573 17.2183 8.7639 17.1607 8.66072L17.1088 8.57475L16.6248 7.74364L16.6191 7.73218L16.5499 7.61181L16.4405 7.42266L16.4347 7.4112L16.3886 7.33095L16.0141 6.68326L16.0083 6.67753V6.6718L16.0026 6.66606V6.66033L15.9968 6.6546V6.64887V6.64314L15.991 6.6374V6.63167V6.62594V6.62021L15.9853 6.61448V6.60875V6.60301V6.59728V6.59155V6.58582V6.58009V6.57436V6.56862V6.56289V6.55716V6.55143V6.5457V6.53996V6.53423L15.991 6.5285V6.52277V6.51704V6.51131V6.50557H15.9968V6.49984V6.49411L16.0026 6.48838V6.48265V6.47692H16.0083V6.47118L16.0141 6.46545V6.45972L16.0198 6.45399L16.0256 6.44826V6.44252L16.0314 6.43679L16.0371 6.43106L16.0429 6.42533L16.0487 6.4196L16.0544 6.41387L16.0602 6.40813L16.0659 6.4024H16.0717V6.39667H16.0775L16.0832 6.39094H16.089L16.0947 6.38521C16.1985 6.32789 16.331 6.36228 16.3886 6.46545L16.7689 7.11314L16.815 7.19339L16.8207 7.20485C16.8784 7.30802 17.0109 7.34241 17.1203 7.2851V7.27937H17.1261L17.1319 7.27363L17.1376 7.2679H17.1434V7.26217H17.1492L17.1549 7.25644V7.25071H17.1607L17.1664 7.24497V7.23924H17.1722L17.178 7.23351V7.22778H17.1837V7.22205L17.1895 7.21632V7.21058H17.1952V7.20485L17.201 7.19912V7.19339L17.2068 7.18766V7.18192L17.2125 7.17619V7.17046V7.16473L17.2183 7.159V7.15327V7.14753L17.2241 7.1418V7.13607V7.13034V7.12461V7.11888V7.11314V7.10741V7.10168H17.2298V7.09595V7.09022L18.2093 8.68938L18.532 9.22817L18.5262 9.2339C19.8457 11.4406 21.5973 13.8365 24.3283 13.8365C27.3072 13.8365 29.7214 11.4349 29.7214 8.47731C29.7214 5.51398 27.3072 3.11236 24.3283 3.11236C22.5883 3.11236 21.0384 3.93774 20.0531 5.21592C19.7708 5.62861 19.2925 5.90374 18.7509 5.90374C17.8924 5.90374 17.1895 5.21019 17.1895 4.35042C17.1895 3.96639 17.3278 3.61676 17.5525 3.34736C19.1082 1.31258 21.5627 0 24.3283 0ZM15.0058 7.56595C15.0691 7.66913 15.0346 7.80096 14.9309 7.86401C14.8214 7.92132 14.6889 7.88693 14.6313 7.78376C14.5679 7.67486 14.6024 7.54303 14.7119 7.48571C14.8156 7.42266 14.9481 7.46278 15.0058 7.56595ZM15.3169 9.58927C15.3169 9.58354 15.3227 9.58354 15.3227 9.58354L15.3169 9.58927ZM16.2388 9.125H16.233H16.2273V9.13073H16.2215H16.2157H16.21V9.13646H16.2042H16.1985L16.1927 9.14219H16.1869V9.14793H16.1812H16.1754V9.15366H16.1696H16.1639V9.15939H16.1581V9.16512H16.1524V9.17085H16.1466V9.17659H16.1408L16.1351 9.18232L16.1293 9.18805V9.19378H16.1236V9.19951H16.1178C16.0659 9.26829 16.0544 9.36573 16.1005 9.44598C16.1581 9.54915 16.2964 9.58354 16.4001 9.52622C16.5038 9.46317 16.5384 9.33134 16.4808 9.22817C16.4289 9.14219 16.331 9.10207 16.2388 9.125Z" fill="#FFEC00"/>
<path fill-rule="evenodd" clip-rule="evenodd" d="M13.3501 0.8125L14.2662 2.29703L17.2278 7.0888V7.09453V7.10027H17.222V7.106V7.11173V7.11746V7.12319V7.12893V7.13466V7.14039L17.2162 7.14612V7.15185V7.15758L17.2105 7.16332V7.16905V7.17478L17.2047 7.18051V7.18624L17.1989 7.19197V7.19771L17.1932 7.20344V7.20917H17.1874V7.2149L17.1817 7.22063V7.22637H17.1759V7.2321L17.1701 7.23783H17.1644V7.24356L17.1586 7.24929H17.1529V7.25502L17.1471 7.26076H17.1413V7.26649H17.1356L17.1298 7.27222L17.124 7.27795H17.1183V7.28368C17.0088 7.341 16.8763 7.30661 16.8187 7.20344L16.8129 7.19197L16.3865 6.46404C16.3289 6.36087 16.1964 6.32648 16.0927 6.38379L16.0869 6.38953H16.0812L16.0754 6.39526H16.0696V6.40099H16.0639L16.0581 6.40672L16.0524 6.41245L16.0466 6.41818L16.0408 6.42392L16.0351 6.42965L16.0293 6.43538L16.0235 6.44111V6.44684L16.0178 6.45257L16.012 6.45831V6.46404L16.0063 6.46977V6.4755H16.0005V6.48123V6.48697L15.9947 6.4927V6.49843V6.50416H15.989V6.50989V6.51562V6.52136V6.52709L15.9832 6.53282V6.53855V6.54428V6.55001V6.55575V6.56148V6.56721V6.57294V6.57867V6.58441V6.59014V6.59587V6.6016V6.60733V6.61306L15.989 6.6188V6.62453V6.63026V6.63599L15.9947 6.64172V6.64746V6.65319L16.0005 6.65892V6.66465L16.0063 6.67038V6.67611L16.012 6.68185L16.3865 7.32954L16.4326 7.40978L16.4384 7.42125L16.5479 7.61039L16.617 7.73076L16.6228 7.74223L17.1586 8.65931C17.2162 8.76248 17.1817 8.89431 17.078 8.95736C16.9742 9.01468 16.8417 8.98029 16.7783 8.87712L16.352 8.14345L16.2771 8.01162L16.2483 7.9543L16.1676 7.8282V7.82247L16.0581 7.63905V7.62759L15.7412 7.0888L15.5568 6.76782C15.4992 6.66465 15.3609 6.63026 15.2572 6.69331H15.2515L15.2457 6.69904L15.2399 6.70477H15.2342L15.2284 6.71051L15.2227 6.71624L15.2169 6.72197L15.2111 6.7277L15.2054 6.73343L15.1996 6.73916L15.1938 6.7449V6.75063H15.1881V6.75636L15.1823 6.76209V6.76782H15.1766V6.77355L15.1708 6.77929V6.78502V6.79075H15.165V6.79648V6.80221L15.1593 6.80795V6.81368V6.81941L15.1535 6.82514V6.83087V6.8366V6.84234V6.84807L15.1478 6.8538V6.85953V6.86526V6.871V6.87673V6.88246V6.88819V6.89392V6.89965V6.90539L15.1535 6.91112V6.91685V6.92258V6.92831V6.93404L15.1593 6.93978V6.94551V6.95124L15.165 6.95697V6.9627V6.96844L15.1708 6.97417V6.9799L15.1766 6.98563L15.3609 7.30661L15.626 7.76515L15.6778 7.8454L15.7873 8.04028L15.8968 8.22943L15.9717 8.35553L16.0408 8.48163C16.1042 8.5848 16.0696 8.71663 15.9659 8.77395L15.9602 8.77968H15.9544L15.9486 8.78541H15.9429L15.9371 8.79114H15.9314H15.9256V8.79687H15.9198H15.9141H15.9083L15.9025 8.80261H15.8968H15.891H15.8853H15.8795H15.8737H15.868H15.8622H15.8565H15.8507H15.8449H15.8392H15.8334H15.8276H15.8219H15.8161H15.8104L15.8046 8.79687H15.7988H15.7931H15.7873L15.7815 8.79114H15.7758H15.77V8.78541H15.7643H15.7585L15.7527 8.77968H15.747L15.7412 8.77395L15.7355 8.76822H15.7297L15.7239 8.76248L15.7182 8.75675H15.7124L15.7066 8.75102V8.74529H15.7009L15.6951 8.73956V8.73382H15.6894V8.72809L15.6836 8.72236H15.6778V8.71663L15.6721 8.7109V8.70517L15.6663 8.69943L15.5223 8.44724L15.4704 8.36126L15.3955 8.23516L15.3321 8.12626C15.3321 8.12052 15.3321 8.12052 15.3264 8.11479C15.3264 8.11479 15.3264 8.10906 15.3206 8.10906C15.3206 8.10333 15.3148 8.10333 15.3148 8.0976H15.3091V8.09187L15.3033 8.08613L15.2976 8.0804L15.2918 8.07467H15.286V8.06894L15.2803 8.06321H15.2745V8.05747H15.2687L15.263 8.05174H15.2572C15.2572 8.04601 15.2515 8.04601 15.2515 8.04601L15.2457 8.04028H15.2399H15.2342L15.2284 8.03455H15.2227L15.2169 8.02882H15.2111H15.2054L15.1996 8.02308H15.1938H15.1881H15.1823H15.1766L15.1708 8.01735H15.165H15.1593H15.1535H15.1478H15.142H15.1362H15.1305H15.1247H15.1189L15.1132 8.02308H15.1074H15.1017H15.0959H15.0901H15.0844L15.0786 8.02882H15.0728L15.0671 8.03455H15.0613H15.0556L15.0498 8.04028H15.044L15.0383 8.04601H15.0325V8.05174H15.0268L15.021 8.05747H15.0152L15.0095 8.06321L15.0037 8.06894L14.9979 8.07467H14.9922V8.0804L14.9864 8.08613L14.9807 8.09187L14.9749 8.0976L14.9691 8.10333V8.10906L14.9634 8.11479L14.9576 8.12052V8.12626L14.9518 8.13199V8.13772H14.9461V8.14345V8.14918L14.9403 8.15491V8.16065V8.16638H14.9346V8.17211V8.17784V8.18357L14.9288 8.18931V8.19504V8.20077V8.2065V8.21223V8.21796V8.2237L14.923 8.22943V8.23516V8.24089L14.9288 8.24662V8.25235V8.25809V8.26382V8.26955V8.27528V8.28101L14.9346 8.28675V8.29248V8.29821V8.30394L14.9403 8.30967V8.3154V8.32114L14.9461 8.32687L14.9518 8.3326V8.33833L14.9576 8.34406L15.021 8.45297L15.0901 8.57907L15.142 8.66504L15.4877 9.26115C15.5453 9.36432 15.5107 9.49615 15.407 9.55347L15.4013 9.5592H15.3955L15.3897 9.56493H15.384L15.3782 9.57067H15.3725L15.3667 9.5764H15.3609C15.263 9.60506 15.1535 9.57067 15.1017 9.47896L14.5889 8.55041L13.2867 6.30928L11.7483 3.6612H8.97111H6.19393L4.80533 6.05708L3.41674 8.44724L4.80533 10.8374L6.19393 13.2333H8.97111H11.7483L13.1369 10.8374L13.7073 9.86299L15.3897 12.6372L13.3501 16.1508H8.90197H4.4481L2.22405 12.3162L0 8.48163L2.22405 4.64706L4.4481 0.8125H8.90197H13.3501ZM15.0037 7.56454C15.0671 7.66771 15.0325 7.79954 14.9288 7.86259C14.8193 7.91991 14.6868 7.88552 14.6292 7.78235C14.5658 7.67344 14.6004 7.54161 14.7099 7.4843C14.8136 7.42125 14.9461 7.46137 15.0037 7.56454ZM16.4787 9.22676C16.5363 9.32993 16.5018 9.46176 16.3981 9.52481C16.2943 9.58213 16.1561 9.54774 16.0984 9.44457C16.0351 9.34139 16.0754 9.20383 16.1791 9.14651C16.2828 9.0892 16.4153 9.12359 16.4787 9.22676Z" fill="#00AAFF"/>
<path fill-rule="evenodd" clip-rule="evenodd" d="M15.073 3.59961L12.5781 5.08987L16.8361 12.5068L19.3021 10.4548L15.073 3.59961Z" fill="url(#paint0_linear_245_592)"/>
<defs>
<linearGradient id="paint0_linear_245_592" x1="13.6771" y1="4.74103" x2="18.1709" y2="11.3891" gradientUnits="userSpaceOnUse">
<stop stop-color="#00AAFF"/>
<stop offset="0.388235" stop-color="#7FCB80"/>
<stop offset="0.811765" stop-color="#FFEC00"/>
<stop offset="1" stop-color="#FFEC00"/>
</linearGradient>
</defs>
</svg>
